<?xml version="1.0" standalone="no"?><!-- Generator: Gravit.io --><svg xmlns="http://www.w3.org/2000/svg" xmlns:xlink="http://www.w3.org/1999/xlink" style="isolation:isolate" viewBox="25 -2.534 250 88.068" width="250" height="88.068"><g id="logo-black"><g id="Group"><g id="line1"><path d=" M 162.072 49.91 C 163.452 49.91 164.487 49.865 165.176 49.775 C 165.866 49.685 166.661 49.43 167.561 49.01 C 169.181 48.17 169.99 45.861 169.99 42.082 C 169.99 38.242 169.211 35.933 167.651 35.153 C 166.751 34.673 165.956 34.388 165.266 34.298 C 164.577 34.208 163.557 34.163 162.207 34.163 C 160.857 34.163 158.863 34.283 156.223 34.523 L 156.223 25.705 C 156.223 23.605 156.073 22.075 155.773 21.116 C 154.993 18.896 152.564 17.786 148.485 17.786 C 144.645 17.786 142.336 18.536 141.556 20.036 C 141.076 20.816 140.791 21.536 140.701 22.195 C 140.611 22.855 140.566 23.875 140.566 25.255 L 140.566 34.523 L 137.597 34.163 C 136.157 34.163 134.957 34.553 133.998 35.333 C 133.458 35.813 133.038 36.608 132.738 37.717 C 132.438 38.827 132.288 40.612 132.288 43.071 C 132.288 45.531 132.723 47.271 133.593 48.29 C 134.462 49.31 135.557 49.82 136.877 49.82 C 138.197 49.82 139.426 49.73 140.566 49.55 L 140.566 62.867 C 140.566 69.586 142.186 74.355 145.425 77.175 C 148.665 79.994 153.404 81.404 159.643 81.404 C 160.962 81.404 161.967 81.359 162.657 81.269 C 163.347 81.179 164.142 80.924 165.041 80.504 C 166.721 79.664 167.561 77.355 167.561 73.575 C 167.561 70.336 166.871 68.326 165.491 67.547 C 164.652 67.067 163.857 66.782 163.107 66.692 C 162.357 66.602 161.277 66.557 159.867 66.557 C 158.458 66.557 157.498 66.197 156.988 65.477 C 156.478 64.757 156.223 63.587 156.223 61.968 L 156.223 49.55 L 162.072 49.91 Z " fill="rgb(0,0,0)"/><path d=" M 181.148 39.922 C 176.109 44.601 173.59 50.54 173.59 57.738 C 173.59 62.538 174.865 66.842 177.414 70.651 C 179.964 74.46 183.098 77.34 186.817 79.289 C 190.536 81.239 194.376 82.214 198.335 82.214 C 202.294 82.214 206.118 81.299 209.808 79.469 C 213.497 77.64 216.631 74.79 219.211 70.921 C 221.79 67.052 223.08 62.628 223.08 57.649 C 223.08 50.45 220.591 44.526 215.612 39.877 C 210.633 35.228 204.904 32.903 198.425 32.903 C 191.946 32.903 186.187 35.243 181.148 39.922 Z  M 198.245 66.377 C 196.265 66.377 194.316 65.642 192.396 64.172 C 190.476 62.703 189.517 60.513 189.517 57.604 C 189.517 54.694 190.447 52.49 192.306 50.99 C 194.166 49.49 196.175 48.74 198.335 48.74 C 200.495 48.74 202.504 49.46 204.364 50.9 C 206.223 52.34 207.153 54.529 207.153 57.469 C 207.153 60.408 206.163 62.628 204.184 64.127 C 202.204 65.627 200.225 66.377 198.245 66.377 Z " fill="rgb(0,0,0)"/><path d=" M 261.773 57.649 L 271.761 47.57 C 273.92 45.411 275 43.566 275 42.037 C 275 40.507 273.92 38.662 271.761 36.503 C 269.601 34.343 267.771 33.263 266.272 33.263 C 264.772 33.263 262.942 34.343 260.783 36.503 L 250.885 46.581 L 240.897 36.503 C 238.737 34.343 236.922 33.263 235.453 33.263 C 233.983 33.263 232.153 34.343 229.964 36.503 C 227.774 38.662 226.679 40.507 226.679 42.037 C 226.679 43.566 227.759 45.411 229.919 47.57 L 239.907 57.649 L 229.919 67.727 C 227.759 69.886 226.679 71.731 226.679 73.26 C 226.679 74.79 227.774 76.62 229.964 78.749 C 232.153 80.879 233.983 81.944 235.453 81.944 C 236.922 81.944 238.737 80.864 240.897 78.704 L 250.885 68.716 L 260.783 78.704 C 262.942 80.864 264.772 81.944 266.272 81.944 C 267.771 81.944 269.601 80.879 271.761 78.749 C 273.92 76.62 275 74.79 275 73.26 C 275 71.731 273.92 69.886 271.761 67.727 L 261.773 57.649 Z " fill="rgb(0,0,0)"/></g></g><g id="logomark"><g id="Group"><path d=" M 67.194 80.853 C 55.826 76.84 45.122 69.486 43.785 52.101 C 41.779 34.048 55.154 16.662 74.551 14.657 C 93.275 12.652 111.329 26.692 113.336 45.415 C 114.673 60.125 106.649 70.823 94.612 74.167 C 92.606 80.853 93.275 85.534 95.949 85.534 C 86.586 85.534 73.212 82.86 67.194 80.853 Z  M 37.097 77.509 C 29.073 75.504 24.395 68.818 25.063 59.456 C 25.729 51.432 31.079 44.077 38.436 41.403 C 37.767 44.747 37.097 48.089 37.767 52.102 C 35.092 54.108 33.754 56.783 33.085 60.126 C 33.085 66.143 35.76 70.155 40.442 71.493 C 41.779 74.168 41.11 76.174 40.442 76.174 C 42.447 76.174 45.791 76.174 47.797 75.505 C 49.804 77.51 51.81 79.518 54.485 81.523 L 55.154 81.523 L 54.485 81.523 C 50.473 83.529 42.447 84.866 35.76 84.866 C 37.767 84.865 38.436 81.522 37.097 77.509 L 37.097 77.509 Z  M 88.592 65.474 C 95.949 62.799 100.631 56.113 99.962 47.42 C 98.623 35.384 87.923 26.692 75.887 28.029 C 63.851 28.698 55.826 40.065 56.495 51.432 C 57.833 62.131 64.52 66.812 71.207 68.817 C 75.22 70.823 83.244 72.161 89.262 72.161 C 87.923 72.161 87.256 68.818 88.592 65.474 Z " fill-rule="evenodd" fill="rgb(0,0,0)"/></g></g></g></svg>