<?xml version="1.0" standalone="no"?><!-- Generator: Gravit.io --><svg xmlns="http://www.w3.org/2000/svg" xmlns:xlink="http://www.w3.org/1999/xlink" style="isolation:isolate" viewBox="28.644 9.126 142.712 164.748" width="142.712" height="164.748"><g id="logo-white-vert"><g id="Group"><g id="line1"><path d=" M 58.428 141.57 C 59.808 141.57 60.843 141.525 61.533 141.435 C 62.222 141.345 63.017 141.09 63.917 140.67 C 65.537 139.83 66.347 137.521 66.347 133.742 C 66.347 129.902 65.567 127.593 64.007 126.813 C 63.107 126.333 62.312 126.048 61.622 125.958 C 60.933 125.868 59.913 125.823 58.563 125.823 C 57.213 125.823 55.219 125.943 52.579 126.183 L 52.579 117.365 C 52.579 115.265 52.429 113.736 52.129 112.776 C 51.349 110.556 48.92 109.446 44.841 109.446 C 41.002 109.446 38.692 110.196 37.912 111.696 C 37.432 112.476 37.147 113.196 37.057 113.855 C 36.967 114.515 36.922 115.535 36.922 116.915 L 36.922 126.183 L 33.953 125.823 C 32.513 125.823 31.313 126.213 30.354 126.993 C 29.814 127.473 29.394 128.268 29.094 129.377 C 28.794 130.487 28.644 132.272 28.644 134.731 C 28.644 137.191 29.079 138.931 29.949 139.95 C 30.819 140.97 31.913 141.48 33.233 141.48 C 34.553 141.48 35.783 141.39 36.922 141.21 L 36.922 154.528 C 36.922 161.246 38.542 166.015 41.781 168.835 C 45.021 171.654 49.76 173.064 55.999 173.064 C 57.318 173.064 58.323 173.019 59.013 172.929 C 59.703 172.839 60.498 172.584 61.398 172.164 C 63.077 171.324 63.917 169.015 63.917 165.235 C 63.917 161.996 63.227 159.986 61.847 159.207 C 61.008 158.727 60.213 158.442 59.463 158.352 C 58.713 158.262 57.633 158.217 56.224 158.217 C 54.814 158.217 53.854 157.857 53.344 157.137 C 52.834 156.417 52.579 155.247 52.579 153.628 L 52.579 141.21 L 58.428 141.57 Z " fill="rgb(255,255,255)"/><path d=" M 77.504 131.582 C 72.465 136.261 69.946 142.2 69.946 149.399 C 69.946 154.198 71.221 158.502 73.77 162.311 C 76.32 166.12 79.454 169 83.173 170.949 C 86.893 172.899 90.732 173.874 94.691 173.874 C 98.65 173.874 102.475 172.959 106.164 171.129 C 109.853 169.3 112.987 166.45 115.567 162.581 C 118.146 158.712 119.436 154.288 119.436 149.309 C 119.436 142.11 116.947 136.186 111.968 131.537 C 106.989 126.888 101.26 124.563 94.781 124.563 C 88.302 124.563 82.543 126.903 77.504 131.582 Z  M 94.601 158.037 C 92.621 158.037 90.672 157.302 88.752 155.832 C 86.833 154.363 85.873 152.173 85.873 149.264 C 85.873 146.354 86.803 144.15 88.662 142.65 C 90.522 141.15 92.531 140.4 94.691 140.4 C 96.851 140.4 98.86 141.12 100.72 142.56 C 102.579 144 103.509 146.189 103.509 149.129 C 103.509 152.068 102.52 154.288 100.54 155.787 C 98.56 157.287 96.581 158.037 94.601 158.037 Z " fill="rgb(255,255,255)"/><path d=" M 158.129 149.309 L 168.117 139.231 C 170.276 137.071 171.356 135.226 171.356 133.697 C 171.356 132.167 170.276 130.322 168.117 128.163 C 165.957 126.003 164.127 124.923 162.628 124.923 C 161.128 124.923 159.298 126.003 157.139 128.163 L 147.241 138.241 L 137.253 128.163 C 135.093 126.003 133.279 124.923 131.809 124.923 C 130.339 124.923 128.509 126.003 126.32 128.163 C 124.13 130.322 123.036 132.167 123.036 133.697 C 123.036 135.226 124.115 137.071 126.275 139.231 L 136.263 149.309 L 126.275 159.387 C 124.115 161.546 123.036 163.391 123.036 164.921 C 123.036 166.45 124.13 168.28 126.32 170.409 C 128.509 172.539 130.339 173.604 131.809 173.604 C 133.279 173.604 135.093 172.524 137.253 170.364 L 147.241 160.376 L 157.139 170.364 C 159.298 172.524 161.128 173.604 162.628 173.604 C 164.127 173.604 165.957 172.539 168.117 170.409 C 170.276 168.28 171.356 166.45 171.356 164.921 C 171.356 163.391 170.276 161.546 168.117 159.387 L 158.129 149.309 Z " fill="rgb(255,255,255)"/></g></g><g id="logomark"><g id="Group"><path d=" M 97.953 92.513 C 86.585 88.5 75.881 81.146 74.544 63.761 C 72.538 45.708 85.913 28.322 105.31 26.317 C 124.035 24.313 142.088 38.352 144.096 57.075 C 145.433 71.785 137.408 82.483 125.371 85.827 C 123.365 92.513 124.034 97.194 126.708 97.194 C 117.345 97.194 103.971 94.52 97.953 92.513 Z  M 67.857 89.169 C 59.832 87.164 55.154 80.478 55.822 71.116 C 56.489 63.093 61.838 55.737 69.195 53.063 C 68.526 56.407 67.857 59.749 68.526 63.762 C 65.851 65.768 64.513 68.443 63.844 71.786 C 63.844 77.803 66.52 81.815 71.201 83.153 C 72.538 85.828 71.869 87.834 71.201 87.834 C 73.206 87.834 76.55 87.834 78.557 87.165 C 80.563 89.17 82.569 91.178 85.244 93.183 L 85.913 93.183 L 85.244 93.183 C 81.232 95.189 73.206 96.526 66.52 96.526 C 68.526 96.525 69.195 93.182 67.857 89.169 L 67.857 89.169 Z  M 119.352 77.134 C 126.708 74.459 131.39 67.773 130.721 59.08 C 129.382 47.044 118.683 38.352 106.646 39.689 C 94.61 40.358 86.586 51.725 87.254 63.093 C 88.592 73.792 95.279 78.472 101.966 80.477 C 105.979 82.483 114.003 83.821 120.021 83.821 C 118.683 83.821 118.015 80.478 119.352 77.134 Z " fill-rule="evenodd" fill="rgb(255,255,255)"/></g></g></g></svg>