<svg viewBox="-166.52513966480444 -58.00000000000001 388.0335195530726 112.05017932891343" style="width: 150px; height: 60px; max-height: 100%;" xmlns="http://www.w3.org/2000/svg" xmlns:xlink="http://www.w3.org/1999/xlink" version="1.1" class="jsx-2263963463 artboard-inner"><g transform="translate(-2.094972067039106 40.74301675977653) scale(1.939788950962135)" fill="#FFFFFF"><g id="line1"><path d="M24.912-25.200C26.016-25.200 26.844-25.236 27.396-25.308C27.948-25.380 28.584-25.584 29.304-25.920C30.600-26.592 31.248-28.440 31.248-31.464C31.248-34.536 30.624-36.384 29.376-37.008C28.656-37.392 28.020-37.620 27.468-37.692C26.916-37.764 26.100-37.800 25.020-37.800C23.940-37.800 22.344-37.704 20.232-37.512L20.232-44.568C20.232-46.248 20.112-47.472 19.872-48.240C19.248-50.016 17.304-50.904 14.040-50.904C10.968-50.904 9.120-50.304 8.496-49.104C8.112-48.480 7.884-47.904 7.812-47.376C7.740-46.848 7.704-46.032 7.704-44.928L7.704-37.512L5.328-37.800C4.176-37.800 3.216-37.488 2.448-36.864C2.016-36.480 1.680-35.844 1.440-34.956C1.200-34.068 1.080-32.640 1.080-30.672C1.080-28.704 1.428-27.312 2.124-26.496C2.820-25.680 3.696-25.272 4.752-25.272C5.808-25.272 6.792-25.344 7.704-25.488L7.704-14.832C7.704-9.456 9.000-5.640 11.592-3.384C14.184-1.128 17.976 0 22.968 0C24.024 0 24.828-0.036 25.380-0.108C25.932-0.180 26.568-0.384 27.288-0.720C28.632-1.392 29.304-3.240 29.304-6.264C29.304-8.856 28.752-10.464 27.648-11.088C26.976-11.472 26.340-11.700 25.740-11.772C25.140-11.844 24.276-11.880 23.148-11.880C22.020-11.880 21.252-12.168 20.844-12.744C20.436-13.320 20.232-14.256 20.232-15.552L20.232-25.488Z"></path><path d="M40.176-33.192C36.144-29.448 34.128-24.696 34.128-18.936C34.128-15.096 35.148-11.652 37.188-8.604C39.228-5.556 41.736-3.252 44.712-1.692C47.688-0.132 50.760 0.648 53.928 0.648C57.096 0.648 60.156-0.084 63.108-1.548C66.060-3.012 68.568-5.292 70.632-8.388C72.696-11.484 73.728-15.024 73.728-19.008C73.728-24.768 71.736-29.508 67.752-33.228C63.768-36.948 59.184-38.808 54.000-38.808C48.816-38.808 44.208-36.936 40.176-33.192ZM53.856-12.024C52.272-12.024 50.712-12.612 49.176-13.788C47.640-14.964 46.872-16.716 46.872-19.044C46.872-21.372 47.616-23.136 49.104-24.336C50.592-25.536 52.200-26.136 53.928-26.136C55.656-26.136 57.264-25.560 58.752-24.408C60.240-23.256 60.984-21.504 60.984-19.152C60.984-16.800 60.192-15.024 58.608-13.824C57.024-12.624 55.440-12.024 53.856-12.024Z"></path><path d="M104.688-19.008L112.680-27.072C114.408-28.800 115.272-30.276 115.272-31.500C115.272-32.724 114.408-34.200 112.680-35.928C110.952-37.656 109.488-38.520 108.288-38.520C107.088-38.520 105.624-37.656 103.896-35.928L95.976-27.864L87.984-35.928C86.256-37.656 84.804-38.520 83.628-38.520C82.452-38.520 80.988-37.656 79.236-35.928C77.484-34.200 76.608-32.724 76.608-31.500C76.608-30.276 77.472-28.800 79.200-27.072L87.192-19.008L79.200-10.944C77.472-9.216 76.608-7.740 76.608-6.516C76.608-5.292 77.484-3.828 79.236-2.124C80.988-0.420 82.452 0.432 83.628 0.432C84.804 0.432 86.256-0.432 87.984-2.160L95.976-10.152L103.896-2.160C105.624-0.432 107.088 0.432 108.288 0.432C109.488 0.432 110.952-0.420 112.680-2.124C114.408-3.828 115.272-5.292 115.272-6.516C115.272-7.740 114.408-9.216 112.680-10.944Z"></path></g></g><g transform="translate(-166.52579681581048 -69.24315852249427) scale(1.3699259906430103)" id="logomark"><g fill="#FFFFFF"><path fill-rule="evenodd" clip-rule="evenodd" d="M47.806 84.697C34.926 80.15 22.799 71.818 21.284 52.12 19.011 31.666 34.165 11.968 56.142 9.696c21.215-2.271 41.67 13.636 43.944 34.849 1.515 16.667-7.577 28.788-21.215 32.576C76.598 84.697 77.356 90 80.386 90c-10.608 0-25.761-3.03-32.58-5.303zm-34.099-3.789C4.615 78.636-.685 71.061.072 60.454.827 51.363 6.888 43.029 15.223 40c-.758 3.788-1.516 7.575-.758 12.121-3.03 2.273-4.546 5.304-5.304 9.092 0 6.817 3.031 11.363 8.335 12.879 1.515 3.03.757 5.303 0 5.303 2.272 0 6.061 0 8.334-.758 2.273 2.272 4.546 4.547 7.577 6.819h.758-.758c-4.546 2.272-13.639 3.787-21.215 3.787 2.273-.001 3.031-3.788 1.515-8.335zm58.344-13.636c8.335-3.031 13.64-10.606 12.882-20.455-1.517-13.637-13.64-23.485-27.277-21.97-13.637.758-22.729 13.637-21.972 26.516C37.2 63.485 44.777 68.788 52.353 71.06c4.547 2.272 13.638 3.788 20.457 3.788-1.517.001-2.273-3.787-.759-7.576z"></path></g></g></svg>