<svg xmlns="http://www.w3.org/2000/svg" style="isolation:isolate" viewBox="12.294 10 74.674 30" width="74.674" height="30"><path d="M32.098 21.546c0-1.293.02-2.911-.01-4.204a7.828 7.828 0 0 0-.206-1.664c-.947-3.862-4.696-6.264-8.633-5.554-3.485.629-6.079 3.73-6.079 7.266v4.148h-3.486c-.767 0-1.39.62-1.39 1.385v15.691c0 .765.623 1.386 1.39 1.386h21.983c.768 0 1.39-.621 1.39-1.386V22.923c0-.765-.622-1.385-1.39-1.385l-3.569.008zm-5.387 14.695h-4.088a1.17 1.17 0 0 1-1.162-1.179l.002-.052-.002-.563c0-.312.141-1.183.57-1.814.454-.667 1.067-1.101 1.731-1.296a2.39 2.39 0 0 1 .905-4.605 2.394 2.394 0 0 1 2.398 2.391 2.393 2.393 0 0 1-1.559 2.241c.645.207 1.255.638 1.735 1.298.449.617.632 1.474.632 1.785v.616a1.17 1.17 0 0 1-1.162 1.178zm2.676-17.108c-.432 1.272-1.25 2.291-2.105 3.286-.66.768-1.436 1.414-2.262 1.999-.04.029-.083.052-.19.118.493-.848.89-1.654 1.005-2.594-1.171.276-2.276.155-3.345-.315-1.899-.834-3.034-2.653-2.84-4.707.159-1.69 1.09-2.909 2.579-3.695 2.398-1.268 5.46-.457 6.831 1.797.799 1.313.811 2.688.327 4.111zm22.109 4.443h-4.752V20.48h12.984v3.096h-4.872v14.472h-3.36V23.576zm9.648 8.352q0-1.656.192-2.772.192-1.116.6-1.896.408-.78 1.128-1.236 1.32-.84 3.888-.84 3.288 0 4.548 1.44 1.26 1.44 1.26 5.124 0 3.684-1.236 5.052-1.236 1.368-4.572 1.368-3.264 0-4.56-1.464-1.248-1.416-1.248-4.776zm3.852-3.384q-.3.432-.396 1.188-.096.756-.096 2.052t.12 2.016q.12.72.444 1.092.324.372.732.468.408.096 1.104.096.696 0 1.044-.048.348-.048.672-.24.324-.192.468-.6.312-.864.312-2.34t-.06-2.16q-.06-.684-.204-1.152-.144-.468-.456-.66-.552-.36-1.548-.372-.996-.012-1.416.108-.42.12-.72.552zm13.188 9.504h-4.08l4.416-6.384-4.416-6.36h4.08l2.328 3.816 2.4-3.816h4.056l-4.464 6.432 4.272 6.312h-3.864l-2.376-3.768-2.352 3.768z" fill="#fff" fill-rule="evenodd"/></svg>